<svg id="visual" viewBox="0 0 900 600" width="900" height="600" xmlns="http://www.w3.org/2000/svg" xmlns:xlink="http://www.w3.org/1999/xlink" version="1.1"><rect x="0" y="0" width="900" height="600" fill="#FFFFFF"></rect><path d="M0 501L37.5 497C75 493 150 485 225 455.3C300 425.7 375 374.3 450 372C525 369.7 600 416.3 675 418.7C750 421 825 379 862.5 358L900 337L900 0L862.5 0C825 0 750 0 675 0C600 0 525 0 450 0C375 0 300 0 225 0C150 0 75 0 37.5 0L0 0Z" fill="#5a34fc" stroke-linecap="round" stroke-linejoin="miter"></path></svg>