<svg xmlns="http://www.w3.org/2000/svg" xmlns:xlink="http://www.w3.org/1999/xlink" viewBox="0 0 812.75 700.91"><defs><style>.cls-1{fill:#3b3457;}.cls-2{fill:#efe9ff;}.cls-3{fill:url(#New_Gradient_Swatch_copy_3);}.cls-4{fill:#fa6c69;}.cls-5{fill:url(#New_Gradient_Swatch_copy_2);}.cls-6{fill:url(#New_Gradient_Swatch_copy);}.cls-7{fill:#ff4b60;}.cls-8{fill:#c5c0d8;}.cls-9{fill:url(#New_Gradient_Swatch_copy_6);}.cls-10{fill:url(#New_Gradient_Swatch_copy_4);}.cls-11{fill:#3900a3;}.cls-12{fill:url(#New_Gradient_Swatch_copy_4-2);}.cls-13{fill:url(#New_Gradient_Swatch_copy-2);}.cls-14{fill:#813abe;}.cls-15{fill:url(#New_Gradient_Swatch);}.cls-16{fill:url(#New_Gradient_Swatch-2);}.cls-17{fill:#ffb876;}.cls-18{fill:url(#New_Gradient_Swatch_copy-3);}.cls-19{fill:url(#New_Gradient_Swatch_copy-4);}.cls-20{fill:#f4f0ff;}.cls-21{fill:url(#New_Gradient_Swatch_copy_3-2);}.cls-22{fill:#1194f6;}.cls-23{fill:#fdcca3;}.cls-24{fill:url(#New_Gradient_Swatch_copy-5);}.cls-25{fill:url(#New_Gradient_Swatch_copy-6);}.cls-26{fill:url(#New_Gradient_Swatch_copy-7);}.cls-27{fill:url(#New_Gradient_Swatch_copy_2-2);}.cls-28{fill:url(#New_Gradient_Swatch_copy-8);}.cls-29{fill:url(#New_Gradient_Swatch_copy-9);}.cls-30{fill:url(#New_Gradient_Swatch_copy_4-3);}.cls-31{fill:#9d96b8;}.cls-32{fill:url(#New_Gradient_Swatch_copy_6-2);}.cls-33{fill:url(#New_Gradient_Swatch_copy_2-3);}.cls-34{fill:url(#New_Gradient_Swatch_copy_6-3);}.cls-35{fill:url(#New_Gradient_Swatch_copy_3-3);}.cls-36{fill:url(#New_Gradient_Swatch_copy_4-4);}.cls-37{fill:url(#New_Gradient_Swatch_copy_4-5);}.cls-38{fill:url(#New_Gradient_Swatch_copy-10);}.cls-39{fill:url(#New_Gradient_Swatch_copy-11);}.cls-40{fill:url(#New_Gradient_Swatch_copy_3-4);}.cls-41{fill:url(#New_Gradient_Swatch_copy_3-5);}.cls-42{fill:url(#New_Gradient_Swatch-3);}.cls-43{fill:url(#New_Gradient_Swatch_copy_2-4);}.cls-44{fill:url(#New_Gradient_Swatch_copy_3-6);}.cls-45{fill:url(#New_Gradient_Swatch-4);}</style><linearGradient id="New_Gradient_Swatch_copy_3" x1="629.88" y1="565.3" x2="627.14" y2="264.44" gradientTransform="translate(1256.6 783.6) rotate(-180)" gradientUnits="userSpaceOnUse"><stop offset="0" stop-color="#1194f6"/><stop offset="1" stop-color="#95d0ff"/></linearGradient><linearGradient id="New_Gradient_Swatch_copy_2" x1="655.96" y1="406.92" x2="627.18" y2="146.36" gradientUnits="userSpaceOnUse"><stop offset="0" stop-color="#813abe"/><stop offset="1" stop-color="#e55ec9"/></linearGradient><linearGradient id="New_Gradient_Swatch_copy" x1="534.92" y1="430.55" x2="467.68" y2="305.02" gradientUnits="userSpaceOnUse"><stop offset="0" stop-color="#ffb876"/><stop offset="1" stop-color="#fdcca3"/></linearGradient><linearGradient id="New_Gradient_Swatch_copy_6" x1="101.61" y1="424.03" x2="347.76" y2="84.88" gradientTransform="translate(393.47 585.91) rotate(-180)" gradientUnits="userSpaceOnUse"><stop offset="0" stop-color="#e55ec9"/><stop offset="1" stop-color="#fdf2fb"/></linearGradient><linearGradient id="New_Gradient_Swatch_copy_4" x1="4.7" y1="460.17" x2="114.46" y2="66.32" gradientUnits="userSpaceOnUse"><stop offset="0" stop-color="#3900a3"/><stop offset="1" stop-color="#5251de"/></linearGradient><linearGradient id="New_Gradient_Swatch_copy_4-2" x1="122.63" y1="493.04" x2="232.4" y2="99.19" xlink:href="#New_Gradient_Swatch_copy_4"/><linearGradient id="New_Gradient_Swatch_copy-2" x1="29.76" y1="43.13" x2="105.81" y2="43.13" xlink:href="#New_Gradient_Swatch_copy"/><linearGradient id="New_Gradient_Swatch" x1="298.37" y1="400.35" x2="426.95" y2="724.21" gradientUnits="userSpaceOnUse"><stop offset="0" stop-color="#3900a3"/><stop offset="0" stop-color="#bebad1"/><stop offset="0.5" stop-color="#e8e3f8"/><stop offset="1" stop-color="#f4f0ff"/></linearGradient><linearGradient id="New_Gradient_Swatch-2" x1="278.43" y1="652.72" x2="288.43" y2="517.69" xlink:href="#New_Gradient_Swatch"/><linearGradient id="New_Gradient_Swatch_copy-3" x1="295.17" y1="395.36" x2="301.46" y2="469.57" xlink:href="#New_Gradient_Swatch_copy"/><linearGradient id="New_Gradient_Swatch_copy-4" x1="248.29" y1="399.33" x2="254.58" y2="473.54" xlink:href="#New_Gradient_Swatch_copy"/><linearGradient id="New_Gradient_Swatch_copy_3-2" x1="149.21" y1="599.75" x2="214.73" y2="440.4" gradientTransform="translate(391.23 973.78) rotate(-180)" xlink:href="#New_Gradient_Swatch_copy_3"/><linearGradient id="New_Gradient_Swatch_copy-5" x1="157.14" y1="478.81" x2="172.85" y2="478.81" xlink:href="#New_Gradient_Swatch_copy"/><linearGradient id="New_Gradient_Swatch_copy-6" x1="641.49" y1="125.88" x2="626.05" y2="261.23" xlink:href="#New_Gradient_Swatch_copy"/><linearGradient id="New_Gradient_Swatch_copy-7" x1="690.22" y1="131.44" x2="674.78" y2="266.79" xlink:href="#New_Gradient_Swatch_copy"/><linearGradient id="New_Gradient_Swatch_copy_2-2" x1="670.93" y1="405.27" x2="642.15" y2="144.7" xlink:href="#New_Gradient_Swatch_copy_2"/><linearGradient id="New_Gradient_Swatch_copy-8" x1="677.28" y1="451.23" x2="738.35" y2="451.23" xlink:href="#New_Gradient_Swatch_copy"/><linearGradient id="New_Gradient_Swatch_copy-9" x1="543.24" y1="426.09" x2="475.99" y2="300.57" xlink:href="#New_Gradient_Swatch_copy"/><linearGradient id="New_Gradient_Swatch_copy_4-3" x1="209.93" y1="501.95" x2="187.21" y2="120.82" xlink:href="#New_Gradient_Swatch_copy_4"/><linearGradient id="New_Gradient_Swatch_copy_6-2" x1="412.54" y1="298.7" x2="520.96" y2="87.96" gradientTransform="matrix(1, 0, 0, 1, 0, 0)" xlink:href="#New_Gradient_Swatch_copy_6"/><linearGradient id="New_Gradient_Swatch_copy_2-3" x1="443.65" y1="187.17" x2="519.04" y2="123.16" xlink:href="#New_Gradient_Swatch_copy_2"/><linearGradient id="New_Gradient_Swatch_copy_6-3" x1="731.73" y1="671.01" x2="816.22" y2="541.92" gradientTransform="matrix(1, 0, 0, 1, 0, 0)" xlink:href="#New_Gradient_Swatch_copy_6"/><linearGradient id="New_Gradient_Swatch_copy_3-3" x1="-34.31" y1="702.59" x2="78.7" y2="436.88" gradientTransform="matrix(1, 0, 0, 1, 0, 0)" xlink:href="#New_Gradient_Swatch_copy_3"/><linearGradient id="New_Gradient_Swatch_copy_4-4" x1="35.62" y1="568.01" x2="86.02" y2="450.43" xlink:href="#New_Gradient_Swatch_copy_4"/><linearGradient id="New_Gradient_Swatch_copy_4-5" x1="35.09" y1="567.78" x2="85.48" y2="450.2" xlink:href="#New_Gradient_Swatch_copy_4"/><linearGradient id="New_Gradient_Swatch_copy-10" x1="221.47" y1="90.93" x2="212.9" y2="158.59" xlink:href="#New_Gradient_Swatch_copy"/><linearGradient id="New_Gradient_Swatch_copy-11" x1="179.86" y1="85.66" x2="171.29" y2="153.32" xlink:href="#New_Gradient_Swatch_copy"/><linearGradient id="New_Gradient_Swatch_copy_3-4" x1="167.51" y1="94.91" x2="262.6" y2="94.91" gradientTransform="matrix(1, 0, 0, 1, 0, 0)" xlink:href="#New_Gradient_Swatch_copy_3"/><linearGradient id="New_Gradient_Swatch_copy_3-5" x1="198.33" y1="130.67" x2="282.84" y2="130.67" gradientTransform="matrix(1, 0, 0, 1, 0, 0)" xlink:href="#New_Gradient_Swatch_copy_3"/><linearGradient id="New_Gradient_Swatch-3" x1="709.03" y1="275.22" x2="816.94" y2="168.77" xlink:href="#New_Gradient_Swatch"/><linearGradient id="New_Gradient_Swatch_copy_2-4" x1="34.17" y1="461.93" x2="10.84" y2="279.65" xlink:href="#New_Gradient_Swatch_copy_2"/><linearGradient id="New_Gradient_Swatch_copy_3-6" x1="279.63" y1="321.01" x2="326.3" y2="151.86" gradientTransform="matrix(1, 0, 0, 1, 0, 0)" xlink:href="#New_Gradient_Swatch_copy_3"/><linearGradient id="New_Gradient_Swatch-4" x1="33.4" y1="713.05" x2="82.31" y2="466.37" xlink:href="#New_Gradient_Swatch"/></defs><g id="Layer_2" data-name="Layer 2"><g id="Object"><rect class="cls-1" x="157.14" y="276.97" width="550.68" height="382.69"/><rect class="cls-2" x="254.37" y="235.8" width="356.22" height="491.51" transform="translate(914.03 49.08) rotate(90)"/><rect class="cls-3" x="482.49" y="300.8" width="291.63" height="182" rx="29.11" transform="translate(1256.6 783.6) rotate(180)"/><path class="cls-4" d="M612.56,521.75V482.8h46.27l-41.1,41.09A3,3,0,0,1,612.56,521.75Z"/><path class="cls-5" d="M674.44,171.69c27.08,18.23,36.49,32.94,33,60.58s-4.7,50,5.29,59.4,35.29,29.6,21.76,48.91-29.56,24-29.56,24,8.39,27.05-18.66,28.23-109.39-11.18-114.09-44.11,0-47.64-14.12-58.81-6.47-34.7,0-47.64S544.5,207,562.73,188.75s38.23-31.17,58.81-17.06S674.44,171.69,674.44,171.69Z"/><path class="cls-6" d="M524.73,372.66l-12,9.48s-10-27.56-19.26-54.49-11.25-41.18-11.25-41.18l-26.12,7s6.43,32.55,12.86,76.35,21.7,61.88,33.35,63.49,57.47-39.13,57.47-39.13Z"/><path class="cls-7" d="M588.1,315.58c-21-.08-31.84,3.93-46.54,25s-24.7,32.08-24.7,32.08,15.82,19.88,33.19,26.49S588.1,315.58,588.1,315.58Z"/><path class="cls-4" d="M628.3,322.83c-46.16-12.93-53.81-9.79-70.86,17.75s-31.17,55.18-21.76,72.82,20,33.52,17.05,69.4H668.59s-7.06-24.11,0-53.52,34.69-49.4,17.64-72.92S628.3,322.83,628.3,322.83Z"/><path class="cls-8" d="M750.58,659.66H114.38a20.63,20.63,0,0,0-20.63,20.62h0a20.63,20.63,0,0,0,20.63,20.63h636.2a20.63,20.63,0,0,0,20.62-20.63h0A20.62,20.62,0,0,0,750.58,659.66Z"/><rect class="cls-9" x="59.71" y="201.96" width="274.05" height="182" rx="29.11" transform="translate(393.47 585.91) rotate(180)"/><path class="cls-10" d="M160.45,199.56c-44.23-10.39-83.06-6.51-95.36-38.22s0-75.08,0-75.08-20.71-.32-38.18-4c0,0-12.94,49-11.65,88.31s15.53,45.17,39.48,60.06,59.18,25.24,59.18,25.24Z"/><path class="cls-11" d="M223.07,217.93c29.06,13.3,47.12,37.25,59.77,90.32s18.47,76.36,18.47,76.36H253.42l-23.3-40.77Z"/><path class="cls-12" d="M183.45,200.44c46.13,12.13,54.44,29.5,60.26,56.68s0,127.49,0,127.49H94.22s5.17-95.13,6.47-123S105.71,180,183.45,200.44Z"/><path class="cls-13" d="M65.09,86.26s17.91-5,22.72-19.93,11.68-24.06,16.83-28.64-7.89-10.88-16.83,0L78.87,48.57s13.75-42.95,1.72-47-36.55,0-40.9,6.3S27.9,34.83,30.19,51.43s6.3,25.78,6.3,25.78l.11,6.71Z"/><rect class="cls-14" x="146.7" y="445.95" width="291.63" height="182" rx="29.11" transform="translate(585.03 1073.9) rotate(-180)"/><path class="cls-15" d="M355.73,533.86c25.8,11.86,56.08,94.09,56.08,94.09H365.58Z"/><path class="cls-16" d="M289.39,515c45.24-.14,94.84,18.89,82.2,73.49-6,26-6,39.51-6,39.51H203s-6.38-39.58-7.17-64.82S234.71,515.12,289.39,515Z"/><path class="cls-17" d="M317.16,490.44s-5,17.86-4.16,30.75c0,0,18.7,3.73,13.3,13.29s-13.3,18.7-34.49,16.21-45.7-20-39.26-25.77,12.25-6.64,17.24-46.12Z"/><path class="cls-1" d="M337.82,438.88c9-3.6,26.95-12.19,26.12-23-.45-5.86-9.46-2.71-9.46-2.71s17.11-16.67,17.11-28.6-16.21-.68-20.71,0c0,0,6.75-20,0-22.28s-17.57,9.9-23.87,9.45-51.8-10.12-67.55,1.36S244.15,397,244.15,397s-11.26,7.05-7.66,23,16.35,38.28,16.06,49.09-5.57,18.65,0,19.81,9.64-3.26,9.64-3.26-3.61,9.09,1.05,9.09,14.44-16.08,14.44-16.08Z"/><path class="cls-18" d="M342.38,411.84s0,32.79-3.71,51.35-25.29,41.44-41.1,39S261.34,483,256.4,464.42s-3.72-61.56-3.72-61.56Z"/><path class="cls-19" d="M262.19,457.35s-7.23,5.4-13.09,0-13.06-27-6.75-31.08,19.84,3.61,19.84,3.61Z"/><path class="cls-1" d="M348.32,402.86s5.4,16.94-18.7,17.35-42.28-8.66-51-2.43-7.68,37.35-17.92,33.83c-3.93-1.36-12.51-37.21-12.51-37.21V393.62Z"/><path class="cls-20" d="M219.12,531.14h0c-31.27,14.33-55.57,59.74-62.35,96.81l-4.83,13.38s12.91,5.94,22.66-3.89,52.53-53.55,52.53-53.55A44,44,0,0,0,219.12,531.14Z"/><path class="cls-17" d="M195.62,537.5s-3.45,27.58-10,50.94-19.07,58.27-33.71,52.89-15.9-26-6.19-53.46c7.67-21.74,21.78-57,21.78-57Z"/><rect class="cls-21" x="167.53" y="436.28" width="56.17" height="101.22" rx="6.68" transform="translate(391.23 973.78) rotate(180)"/><circle class="cls-22" cx="208.04" cy="451.61" r="5.66"/><path class="cls-23" d="M153.24,496.93a30.27,30.27,0,0,1,15.58-13.09c13.4-5,25.84-9.32,24.23-2.9-1.93,7.72-13.5,13.76-13.5,13.76s13.78-9.39,13.64,0,3.72,36.67-6.89,42.8-20.25,7.33-25.55-3.64-11.43-30.07-7.62-36.73Z"/><path class="cls-24" d="M163.27,491.11s-1.9-6.22-4.76-13.41-1.26-13.52,4.76-10.35,9.58,19.54,9.58,19.54Z"/><path class="cls-17" d="M607.56,295.62s2.74,15.84,0,25.17l-1.91,6.48s-17.93-1.52-17.54,15.26,19.45,30.13,36.61,30.13,37.75-11.45,33.56-24-9.15-10.68-9.15-16.78,2.67-29.75,6.48-45.38Z"/><path class="cls-25" d="M624.32,186.5c-24.86-2.59-44.36,25.61-45,61.84s12.49,52.48,32.48,56.85,47.48-13.75,54.35-27.49S702.4,194.62,624.32,186.5Z"/><path class="cls-26" d="M666.29,256s14.49-10.3,21-3.44,1.15,28.61-10.48,30.13a20.42,20.42,0,0,1-17.95-6.1Z"/><path class="cls-27" d="M614.48,171.69c-19.46,12.08-11.17,41.76,5.88,54.11s40.69,8,45.93,30.16,29.94,21,29.94,21,6.42-89.39-21.79-105.27S631.54,161.11,614.48,171.69Z"/><polygon class="cls-28" points="710.59 419.65 738.35 482.8 699.72 482.8 677.28 435.05 710.59 419.65"/><path class="cls-4" d="M669.05,340.58c26.59,12.84,38.35,61.65,46,81.05,0,0-11.29,16.91-31.76,22.35l-8.85,2.36S647,408.86,650,385.76,669.05,340.58,669.05,340.58Z"/><path class="cls-29" d="M482.2,286.47s7.4-6.52,6.06-20-8.09-11.42-11.46-23.89S465.34,225.77,465,232.18s9.43,19.88,4.38,22.91-26.29-28-35.72-24.26-15.16,28.9-8.43,35.68,30.84,27,30.84,27Z"/><path class="cls-30" d="M226,422.64V383.69H179.74l41.1,41.09A3,3,0,0,0,226,422.64Z"/><path class="cls-14" d="M477.26,592.36h-39V546.09l41.1,41.1A3,3,0,0,1,477.26,592.36Z"/><path class="cls-31" d="M505.94,680.28H359a20.62,20.62,0,0,1-20.62-20.62H526.56A20.62,20.62,0,0,1,505.94,680.28Z"/><rect class="cls-32" x="435.87" y="116.95" width="97.4" height="83.48" rx="13.91"/><path class="cls-33" d="M466,176.54V140.85a4.64,4.64,0,0,1,6.79-4.11l34.06,17.85a4.63,4.63,0,0,1,0,8.21l-34.06,17.85A4.64,4.64,0,0,1,466,176.54Z"/><path class="cls-7" d="M794.3,537.64a37.69,37.69,0,0,0-53.29,0,37.69,37.69,0,1,0-53.3,53.3L741,643l53.29-52A37.69,37.69,0,0,0,794.3,537.64Z"/><path class="cls-34" d="M806.87,585.42a20.11,20.11,0,0,0-28.42,0A20.1,20.1,0,0,0,750,613.85l28.42,28.42,28.42-28.42A20.12,20.12,0,0,0,806.87,585.42Z"/><rect class="cls-35" x="5.59" y="432.73" width="100.08" height="116.76" rx="11.12"/><path class="cls-36" d="M92.67,519,74.88,487.34a2.78,2.78,0,0,0-4.91.12l-7.68,15.35L47,473.57a2.79,2.79,0,0,0-4.93,0L18.2,519.11a5.56,5.56,0,0,0,4.92,8.14H87.83A5.55,5.55,0,0,0,92.67,519Z"/><path class="cls-37" d="M94.55,455a11.12,11.12,0,1,1-11.12-11.12A11.12,11.12,0,0,1,94.55,455Z"/><path class="cls-1" d="M181.55,148.17s-4.91,23.81-10.41,22.29-3.63-13.77-3.63-13.77-7.06,7.43-8.17-3.71,6.72-35.58,8.17-50.23l21.61,3.06-9.22,34.91Z"/><path class="cls-17" d="M211,184.92s-8.54,17.07-9.28,24.4l11.51,7.7s18.57,35.65-20.43,34.91-43.82-43.08-43.45-52l11.14-.37s14.65-37.37,15.34-50.63Z"/><path class="cls-38" d="M257.18,113.36c-.59,24.35-7.11,54.34-23.29,68.57s-25.7,11.92-33.73,4.3-28.34-22.88-23.69-50.56,7.61-45,21.15-50.94S258,81.51,257.18,113.36Z"/><path class="cls-39" d="M181.55,148.17s-13.3,7.78-16.27-8.93,4.83-32.32,17.83-17.46Z"/><path class="cls-1" d="M198.33,106.18s-10.23,29.49-16,29.49-2.39-36.54-2.39-36.54Z"/><path class="cls-40" d="M261.47,123.63s4.39-25.93-4.15-39.85-54.06-32.61-79-10.58c-7.56,6.68-10.83,29.55-10.83,29.55s17.08,8.55,30.82,9.66l37.16,14.35Z"/><path class="cls-41" d="M261.47,123.63s-35.41,1.63-63.14-11.22c0,0,8.17,21,37.14,29.49s51.26,10.18,46.8,0S261.47,123.63,261.47,123.63Z"/><path class="cls-42" d="M765.24,224.67h-5v-5a4.58,4.58,0,0,0-9.16,0v5h-5a4.58,4.58,0,1,0,0,9.16h5v5a4.58,4.58,0,0,0,9.16,0v-5h5a4.58,4.58,0,1,0,0-9.16Z"/><path class="cls-43" d="M23.8,301.27h-5v-5a4.58,4.58,0,0,0-9.16,0v5h-5a4.59,4.59,0,0,0,0,9.17h5v5a4.58,4.58,0,1,0,9.16,0v-5h5a4.59,4.59,0,0,0,0-9.17Z"/><path class="cls-44" d="M336.38,150a9.57,9.57,0,1,1-9.57-9.56A9.56,9.56,0,0,1,336.38,150Z"/><path class="cls-45" d="M66.31,595.33a9.57,9.57,0,1,1-9.57-9.56A9.58,9.58,0,0,1,66.31,595.33Z"/></g></g></svg>