<svg xmlns="http://www.w3.org/2000/svg" xmlns:xlink="http://www.w3.org/1999/xlink" viewBox="0 0 699.37 784.82"><defs><style>.cls-1{fill:url(#New_Gradient_Swatch);}.cls-2{fill:#3900a3;}.cls-3{fill:url(#New_Gradient_Swatch_copy);}.cls-4{fill:#c5c0d8;}.cls-5{fill:#229af9;}.cls-6{fill:url(#New_Gradient_Swatch_copy_4);}.cls-7{fill:#5251de;}.cls-8{fill:url(#New_Gradient_Swatch_copy_3);}.cls-9{fill:url(#New_Gradient_Swatch-2);}.cls-10{fill:url(#New_Gradient_Swatch_copy_3-2);}.cls-11{fill:#194ad2;}.cls-12{fill:url(#New_Gradient_Swatch-3);}.cls-13{fill:url(#New_Gradient_Swatch_copy_2);}.cls-14{fill:#fdcca3;}.cls-15{fill:url(#New_Gradient_Swatch_copy_2-2);}.cls-16{fill:#fff;}.cls-17{fill:url(#linear-gradient);}.cls-18{fill:url(#New_Gradient_Swatch_copy_3-3);}.cls-19{fill:url(#New_Gradient_Swatch_copy_3-4);}.cls-20{fill:#585be9;}.cls-21{fill:url(#New_Gradient_Swatch_copy_4-2);}.cls-22{fill:#e55ec9;}.cls-23{fill:#ffb876;}.cls-24{fill:url(#New_Gradient_Swatch_copy_3-5);}.cls-25{fill:url(#New_Gradient_Swatch_copy_3-6);}.cls-26{fill:url(#New_Gradient_Swatch_copy-2);}.cls-27{fill:#3b3457;}.cls-28{fill:#1194f6;}.cls-29{fill:url(#New_Gradient_Swatch_copy_3-7);}.cls-30{fill:url(#New_Gradient_Swatch-4);}.cls-31{fill:url(#New_Gradient_Swatch_copy-3);}.cls-32{fill:url(#New_Gradient_Swatch_copy_3-8);}.cls-33{fill:#95d0ff;}.cls-34{fill:url(#New_Gradient_Swatch_copy_3-9);}.cls-35{fill:url(#New_Gradient_Swatch-5);}.cls-36{fill:url(#New_Gradient_Swatch_copy_4-3);}.cls-37{fill:#e871cf;}.cls-38{fill:url(#New_Gradient_Swatch-6);}.cls-39{fill:url(#New_Gradient_Swatch_copy_2-3);}.cls-40{fill:url(#New_Gradient_Swatch_copy_3-10);}.cls-41{fill:url(#New_Gradient_Swatch-7);}.cls-42{fill:url(#New_Gradient_Swatch_copy_6);}.cls-43{fill:#813abe;}</style><linearGradient id="New_Gradient_Swatch" x1="352.4" y1="1057.15" x2="348.98" y2="656.64" gradientUnits="userSpaceOnUse"><stop offset="0" stop-color="#3900a3"/><stop offset="0" stop-color="#bebad1"/><stop offset="0.5" stop-color="#e8e3f8"/><stop offset="1" stop-color="#f4f0ff"/></linearGradient><linearGradient id="New_Gradient_Swatch_copy" x1="34.44" y1="390.1" x2="86.69" y2="390.1" gradientUnits="userSpaceOnUse"><stop offset="0" stop-color="#ffb876"/><stop offset="1" stop-color="#fdcca3"/></linearGradient><linearGradient id="New_Gradient_Swatch_copy_4" x1="102.69" y1="427.98" x2="99.63" y2="877.41" gradientUnits="userSpaceOnUse"><stop offset="0" stop-color="#3900a3"/><stop offset="1" stop-color="#5251de"/></linearGradient><linearGradient id="New_Gradient_Swatch_copy_3" x1="84.52" y1="699.53" x2="210.67" y2="707.41" gradientUnits="userSpaceOnUse"><stop offset="0" stop-color="#1194f6"/><stop offset="1" stop-color="#95d0ff"/></linearGradient><linearGradient id="New_Gradient_Swatch-2" x1="295.37" y1="423.53" x2="357.04" y2="626.54" xlink:href="#New_Gradient_Swatch"/><linearGradient id="New_Gradient_Swatch_copy_3-2" x1="252.77" y1="469.8" x2="273.14" y2="164.12" xlink:href="#New_Gradient_Swatch_copy_3"/><linearGradient id="New_Gradient_Swatch-3" x1="380.77" y1="472.18" x2="624.9" y2="-1.44" xlink:href="#New_Gradient_Swatch"/><linearGradient id="New_Gradient_Swatch_copy_2" x1="549.45" y1="512.1" x2="481" y2="299.44" gradientUnits="userSpaceOnUse"><stop offset="0" stop-color="#813abe"/><stop offset="1" stop-color="#e55ec9"/></linearGradient><linearGradient id="New_Gradient_Swatch_copy_2-2" x1="552.54" y1="511.11" x2="484.09" y2="298.44" xlink:href="#New_Gradient_Swatch_copy_2"/><linearGradient id="linear-gradient" x1="378.97" y1="315.04" x2="417.17" y2="219.55" gradientUnits="userSpaceOnUse"><stop offset="0" stop-color="#ff4b60"/><stop offset="1" stop-color="#e55ec9"/></linearGradient><linearGradient id="New_Gradient_Swatch_copy_3-3" x1="447.63" y1="260.4" x2="559.75" y2="636.68" xlink:href="#New_Gradient_Swatch_copy_3"/><linearGradient id="New_Gradient_Swatch_copy_3-4" x1="517.95" y1="1085.55" x2="505.4" y2="565.59" xlink:href="#New_Gradient_Swatch_copy_3"/><linearGradient id="New_Gradient_Swatch_copy_4-2" x1="307.35" y1="769.17" x2="586.29" y2="486.73" xlink:href="#New_Gradient_Swatch_copy_4"/><linearGradient id="New_Gradient_Swatch_copy_3-5" x1="304.14" y1="550.6" x2="312.4" y2="790.15" xlink:href="#New_Gradient_Swatch_copy_3"/><linearGradient id="New_Gradient_Swatch_copy_3-6" x1="418.68" y1="656.79" x2="470.22" y2="656.79" xlink:href="#New_Gradient_Swatch_copy_3"/><linearGradient id="New_Gradient_Swatch_copy-2" x1="126.06" y1="227.19" x2="122.31" y2="268.51" xlink:href="#New_Gradient_Swatch_copy"/><linearGradient id="New_Gradient_Swatch_copy_3-7" x1="91.35" y1="220.09" x2="135.64" y2="141.35" xlink:href="#New_Gradient_Swatch_copy_3"/><linearGradient id="New_Gradient_Swatch-4" x1="128.33" y1="138.01" x2="119.15" y2="532.42" xlink:href="#New_Gradient_Swatch"/><linearGradient id="New_Gradient_Swatch_copy-3" x1="187.65" y1="344.79" x2="254.74" y2="285.91" xlink:href="#New_Gradient_Swatch_copy"/><linearGradient id="New_Gradient_Swatch_copy_3-8" x1="541.73" y1="265.59" x2="625.05" y2="1.57" xlink:href="#New_Gradient_Swatch_copy_3"/><linearGradient id="New_Gradient_Swatch_copy_3-9" x1="470.84" y1="541.03" x2="521.78" y2="419.89" xlink:href="#New_Gradient_Swatch_copy_3"/><linearGradient id="New_Gradient_Swatch-5" x1="66.21" y1="94.98" x2="217.55" y2="364.04" xlink:href="#New_Gradient_Swatch"/><linearGradient id="New_Gradient_Swatch_copy_4-3" x1="40.92" y1="259.01" x2="192.27" y2="526.53" xlink:href="#New_Gradient_Swatch_copy_4"/><linearGradient id="New_Gradient_Swatch-6" x1="252.67" y1="160.58" x2="360.57" y2="54.14" xlink:href="#New_Gradient_Swatch"/><linearGradient id="New_Gradient_Swatch_copy_2-3" x1="705.16" y1="515.85" x2="681.83" y2="333.58" xlink:href="#New_Gradient_Swatch_copy_2"/><linearGradient id="New_Gradient_Swatch_copy_3-10" x1="341.94" y1="220.26" x2="388.6" y2="51.11" xlink:href="#New_Gradient_Swatch_copy_3"/><linearGradient id="New_Gradient_Swatch-7" x1="575.06" y1="620.09" x2="623.97" y2="373.4" xlink:href="#New_Gradient_Swatch"/><linearGradient id="New_Gradient_Swatch_copy_6" x1="334.62" y1="253.86" x2="139.89" y2="-39.56" gradientUnits="userSpaceOnUse"><stop offset="0" stop-color="#e55ec9"/><stop offset="1" stop-color="#fdf2fb"/></linearGradient></defs><g id="Layer_2" data-name="Layer 2"><g id="Object"><path class="cls-1" d="M699.32,734.61c-1.11-13-19.12-17.36-33.17-18.16a2320.89,2320.89,0,0,0-290.71,1.8c-38,2.62-75.6,10.27-112.64-.07-34.17-9.54-68-18.93-102.64-27.63-51.74-13-120.79,2.11-156.48,42.2a14.64,14.64,0,0,0,5.14,23.13c58.69,25.36,155,8.4,214.1,8.4,28.6,3.9,56,13.43,84.46,18.07,21.68,3.53,45,3.85,65.43-2.86,12.29-.14,24.58-1,36.38-1.93L665,756.31C680.39,755,700.53,748.91,699.32,734.61Z"/><path class="cls-2" d="M412.26,581S390,585,389.14,604.9s34,121.8,34,121.8Z"/><path class="cls-3" d="M45.08,334.93s-10.64,33.15-10.64,41.36,22,29.09,31.3,32.25c0,0-1.81,8.67,0,16.15s-13.57,11.83-11.2,17.74S70.3,444,75.81,438.88s10.88-38.22,10.88-38.22l-28.21-26.8,11-26.58Z"/><path class="cls-4" d="M67.5,271.15c-13.35,10.4-28.69,66-28.69,66s13.14,15,34.62,14.53Z"/><path class="cls-5" d="M82.77,705.11S78.82,722.34,87,733c2.46,3.22,19.6,2.84,26.72,2.06s36.89,6.3,46.15,3.55c5.71-1.69,4.76-7.47.83-10.76s-27.78-3.53-42.4-21.21Z"/><path class="cls-6" d="M77.44,418.92s-22.59,27.61,3.37,73.27c0,0,2.54,69.6,0,88.77s-9.62,64.42,1.13,126a44.32,44.32,0,0,0,38.28,0S132,591.62,133.34,562.12s3.27-91.79,3.27-91.79l-7.21-51.41Z"/><path class="cls-7" d="M113.48,423.32S97.14,468,130.65,490.92l21.25,69.47a297,297,0,0,0-12,59.52c-3.25,35.94-4.31,57.37-4.31,57.37l36,7.35s22.06-80.92,27.79-122.6-22.95-147-22.95-147Z"/><path class="cls-8" d="M139.55,678.09s-9.53,27.62-4.38,33.29,21.14,7.24,28.16,10c15.16,6,38.46,10.43,46,10.83,5.14.27,6.77-7.85,0-13.27s-26.14-12.3-37.84-34.31Z"/><path class="cls-9" d="M329.09,525.61h0a5,5,0,0,1-6.42-3l-29.39-80.74a5,5,0,0,1,3-6.42h0a5,5,0,0,1,6.42,3l29.39,80.73A5,5,0,0,1,329.09,525.61Z"/><rect class="cls-10" x="208.64" y="193.14" width="109.79" height="230.18" rx="10.9"/><circle class="cls-11" cx="261.32" cy="370.6" r="25.02" transform="translate(-159.13 540.47) rotate(-76.81)"/><path class="cls-12" d="M318.43,201.93l37.93-3.12s31-35.55,72.12-59.69c15.67-9.19,35.81-68.38,35.31-76.22s1.37-53.1,0-59.19,51.36-13.11,52.94,54c.54,22.63-19.31,80.95-8.08,91.4,0,0,131.36,3.48,145.29,11.32s23.5,28.83,13,45.75-5.09,21.28,4.42,35.2-11.3,36-26.18,55.34c-6,7.85,6.87,18.21,1.33,38.24s-17.21,13.87-19.67,21.25,12.39,44.36-29.51,52.68-144.08-8.72-202.77-8.72H318.43Z"/><path class="cls-13" d="M458.69,385.52c2.06-19.2-23.06-47.59,5.59-76.13,18.89-18.82,69.44-24.14,85.54,13.85,4.84,11.41-6.45,31.4,3.23,44.25s30.85,30.65,25.8,46.71C572.93,433,602,454.52,559,465.27s-58.45-29-58.45-29S470.77,447,458.69,426,457.33,398.22,458.69,385.52Z"/><path class="cls-14" d="M464.83,334.55s-2.4,21.16,2.87,41.74,11.51,21.54,16.78,21.54,11.51-2.4,14.86-2.4S507,418.92,507,418.92l29.72-4.79a75.53,75.53,0,0,1-8.14-37.84c.95-22.09,6.71-47-12-57.08S471.06,307.7,464.83,334.55Z"/><path class="cls-14" d="M497,373.38s10.2,8.49,13-3-1.65-23.42-9.43-19.18c-5.11,2.79-6.35,5.26-6.35,5.26Z"/><path class="cls-15" d="M459,355.61s3.38-14,22.65-23.11c0,0-3.25,10.08,12.53,24s27.71,14.84,28.25,29-3.06,40.51,14.32,43.74S559,422.81,559,422.81a102.73,102.73,0,0,1-15.05-37.29c-4.3-22.38.54-77.75-26.88-79.9S455.21,305.08,459,355.61Z"/><path class="cls-16" d="M433.18,246.54H356a9.65,9.65,0,0,0-9.64,9.64v55.45a9.65,9.65,0,0,0,9.64,9.64h9.65v13.47a2.41,2.41,0,0,0,4.11,1.7L385,321.27h48.21a9.65,9.65,0,0,0,9.65-9.64V256.18A9.65,9.65,0,0,0,433.18,246.54Z"/><path class="cls-17" d="M417.43,264.53a16.14,16.14,0,0,0-22.82,0,16.13,16.13,0,0,0-22.81,22.82l22.81,22.82,22.82-22.82A16.14,16.14,0,0,0,417.43,264.53Z"/><path class="cls-18" d="M518.37,409.64c23.53-6.22,32.55,26,31.78,53.09s-10.08,63.93-5,88.73c0,0-31.39,3.88-58.51,0A472.29,472.29,0,0,0,478,500.7c-5.81-24.8-9.56-34.47,6.59-58.12S503.67,413.52,518.37,409.64Z"/><path class="cls-19" d="M535.88,752.88h0a11.67,11.67,0,0,1-11.67-11.68V659.69a8.83,8.83,0,0,0-8.83-8.83H501.92a8.83,8.83,0,0,0-8.83,8.83V741.2a11.68,11.68,0,0,1-11.67,11.68h0a11.68,11.68,0,0,1-11.68-11.68V659.69a32.19,32.19,0,0,1,32.18-32.19h13.46a32.19,32.19,0,0,1,32.18,32.19V741.2A11.68,11.68,0,0,1,535.88,752.88Z"/><rect class="cls-20" x="450.46" y="600.64" width="116.37" height="38.54" rx="9.82"/><path class="cls-21" d="M545.11,551.46s16.71,37.55,5.08,52.08-30.85,14.07-53.36,14.07-57.66-2.34-57.66-2.34a233.72,233.72,0,0,1,6.62,44.54c1.35,25.32-2.29,47.36,0,63.3,0,0-9.9,6.1-28.66,2.82,0,0-10.13-66.06-15-92.85-5.63-30.94-13.13-60,19.22-61.89s65.16-6.1,65.16-6.1l.09-13.63Z"/><path class="cls-22" d="M445.79,723.11s5.67,19.34,2.87,23.54-20.14,4.47-28.53,4.47-42.07,5.56-44.6-3.11c-2-6.72,22-9.23,32.18-14,4.72-2.2,15.46-7.32,15.46-7.32Z"/><path class="cls-14" d="M487.39,459.6,473.06,481s-5.23,1.12-16.71,5.37-45.5,12.33-45.5,12.33v16.16s48.41-.78,68.43-8.68,37.45-39.09,37.45-39.09Z"/><path class="cls-23" d="M383.07,493.35s-6.92-3.82-13.6,2.38-14.55,15-12.88,16.47,8.84-1.67,13.13-5.73S383.07,493.35,383.07,493.35Z"/><path class="cls-14" d="M410.85,498.72s-18.2-9.29-28.32-7.6c-7.24,1.21-23.84,19.61-20.52,20.52s7.55,0,13-3.92a60.31,60.31,0,0,1,11.23-6.28s5,8.09,10.92,12,13.71,1.43,13.71,1.43Z"/><path class="cls-4" d="M321.75,519.89h0a5,5,0,0,1,5-5h85.92a5,5,0,0,1,5,5h0a5,5,0,0,1-5,5H326.76A5,5,0,0,1,321.75,519.89Z"/><rect class="cls-20" x="279.01" y="524.9" width="194.06" height="26.56" rx="2.84"/><path class="cls-24" d="M292.8,762.13h0A11,11,0,0,1,282,749.57l29.28-198.11h22.14L303.63,752.78A11,11,0,0,1,292.8,762.13Z"/><path class="cls-25" d="M459.27,762.13h0a11,11,0,0,0,10.83-12.56L440.82,551.46H418.68l29.76,201.32A11,11,0,0,0,459.27,762.13Z"/><path class="cls-14" d="M154.14,174.42s5.21,13.21,6.41,26,0,27.24-9.87,27.24c-4.7,0-8.57.28-9.4,5.81s1.66,20.2,1.66,20.2l-38.74,2.49s11.47-18.79,0-33.75c-6.37-8.3-24.63-32.65-16-50.36S141.56,146.62,154.14,174.42Z"/><path class="cls-26" d="M146.06,228s-19.08-3-26.68-3.33a98.31,98.31,0,0,0-13.23.7c8.07,14.37-2,30.79-2,30.79l38.74-2.49s-2.49-14.66-1.66-20.2C141.81,229.94,143.6,228.56,146.06,228Z"/><path class="cls-27" d="M135.52,207.36s-2,23.37-5.87,25.3-6.24-4.7-6.24-4.7-.12,9.41-6.21,9.41-8.66-5.94-8.66-5.94-3.24,6.49-5.17,2.62-2.22-4.28-7.75-11.69-8.93-10.17-8.93-10.17l45.45-11.9Z"/><path class="cls-14" d="M134.38,193.48s-9.69-5.54-10.79,1.93,3,24.35,16.32,13.28Z"/><path class="cls-23" d="M155.4,177.92s-10.62,9-12.4,12c0,0-9.21,16.56-16.5,19.28l-10.25-10.65,15.41-15.46Z"/><path class="cls-28" d="M83.27,191.53s-17.79,13-13,19.49,22.31,9,35.3,4.23,33.58-20.15,35-29.14Z"/><path class="cls-29" d="M83.27,191.53s-5.93-12.15,0-30.51,34.74-26,50.28-19.77,23.72,26.83,24.57,34.46C158.12,175.71,133.27,199.44,83.27,191.53Z"/><path class="cls-27" d="M95.13,186.44s16.39,1.13,29.66-3.1c0,0-2.89-21.2-20.05-17.21C95.13,168.37,94,175.15,95.13,186.44Z"/><path class="cls-30" d="M117.72,246.54c30.77.77,70.85,11.24,69,45.31S177,396.13,176.36,415.06c0,0-70.22,15.66-98.92,3.86,0,0-.09-38.06-8-71.64s-11.52-72.75,3.71-82.43C86.6,256.3,102.48,246.16,117.72,246.54Z"/><path class="cls-31" d="M208.64,297.26S222,300.74,229,295.92s28.4-36.11,28.4-36.11l13.09,7.7s-10.1,51.09-37.11,64.71c-11.57,5.83-43.71-9-43.71-9Z"/><rect class="cls-20" x="223.07" y="149.44" width="180.77" height="74.29" rx="37.14"/><path class="cls-16" d="M276.63,195.12V176.5A2.47,2.47,0,0,1,279.1,174h1.12a2.48,2.48,0,0,1,2.48,2.47v15.9h8a2.47,2.47,0,0,1,2.47,2.48v.24a2.47,2.47,0,0,1-2.47,2.48H279.1A2.47,2.47,0,0,1,276.63,195.12Z"/><path class="cls-16" d="M297.82,195.12V176.5a2.47,2.47,0,0,1,2.47-2.47h1.12a2.48,2.48,0,0,1,2.48,2.47v18.62a2.48,2.48,0,0,1-2.48,2.48h-1.12A2.47,2.47,0,0,1,297.82,195.12Z"/><path class="cls-16" d="M309.76,195.12V176.5a2.47,2.47,0,0,1,2.47-2.47h1.12a2.48,2.48,0,0,1,2.48,2.47v5.83l5.73-7.35a2.48,2.48,0,0,1,1.95-.95h1.42a2.48,2.48,0,0,1,1.84,4.13l-5.52,6.12,7,9.36a2.47,2.47,0,0,1-2,4h-1.39a2.45,2.45,0,0,1-2.07-1.12l-5.28-8.06-1.67,1.86v4.84a2.48,2.48,0,0,1-2.48,2.48h-1.12A2.47,2.47,0,0,1,309.76,195.12Z"/><path class="cls-16" d="M334.91,195.12V176.5a2.48,2.48,0,0,1,2.48-2.47h11.47a2.48,2.48,0,0,1,2.48,2.47V179H341v4.35h6.51A2.48,2.48,0,0,1,350,185.8h0a2.48,2.48,0,0,1-2.48,2.48H341v4.37h7.87a2.47,2.47,0,0,1,2.48,2.47h0a2.48,2.48,0,0,1-2.48,2.48H337.39A2.48,2.48,0,0,1,334.91,195.12Z"/><path class="cls-14" d="M257.4,259.81s-8-8.74-5.18-19,5.07-18.71,5.18-23.11,9.24-.49,8.57,6.89c-.35,3.88-1.41,13.22-1.41,13.22s15.08-34,19.66-33.47,3.19,6.34-.34,14.45S280,231,280,231s11.36,3.2,11.36,12-2.89,10.85-9,16.81c-3.4,3.33-11.9,7.7-11.9,7.7Z"/><rect class="cls-32" x="557.93" y="51.35" width="80.93" height="69.37" rx="11.56"/><path class="cls-33" d="M561.1,55l31.5,36a7.71,7.71,0,0,0,11.6,0l31.49-36a11.5,11.5,0,0,0-8.39-3.62H569.49A11.52,11.52,0,0,0,561.1,55Z"/><path class="cls-22" d="M614.45,42.35a11.35,11.35,0,0,0-16.05,0,11.36,11.36,0,1,0-16.06,16.06L598.4,74.47l16.05-16.06A11.35,11.35,0,0,0,614.45,42.35Z"/><path class="cls-34" d="M523.27,411.6c17.81,5.63,13.45,24.61,5.37,45.87S519.28,481,519.28,481s-28.52-9.51-37.65-21c0,0,13.16-20.43,18.88-32.74S515.35,409.09,523.27,411.6Z"/><path class="cls-35" d="M149.69,256.18C133,264.89,138.17,296.83,160.93,314S195,334.93,195,334.93s16-10.91,17.78-39.37c0,0-22.79-20.58-32.87-31.54S158,251.85,149.69,256.18Z"/><path class="cls-36" d="M113.48,423.32s-13.53,37.06,9.34,61c-6-11.52-6.85-36.85,6.59-42.45,14.75-6.15,47-26.78,47-26.78Z"/><path class="cls-37" d="M491.34,306c41.43-8.48,59.06,19.1,58.85,27.6a10.84,10.84,0,0,0,.46,3.4c.6-5.15.79-9.93-.83-13.74-16.1-38-66.65-32.67-85.54-13.85-14.09,14-15.17,28-12.87,40.93C451.37,349.28,450.54,314.34,491.34,306Z"/><path class="cls-38" d="M308.87,110h-5v-5a4.59,4.59,0,1,0-9.17,0v5h-5a4.59,4.59,0,1,0,0,9.17h5v5a4.59,4.59,0,1,0,9.17,0v-5h5a4.59,4.59,0,1,0,0-9.17Z"/><path class="cls-39" d="M694.79,355.19h-5v-5a4.58,4.58,0,0,0-9.16,0v5h-5a4.59,4.59,0,0,0,0,9.17h5v5a4.58,4.58,0,1,0,9.16,0v-5h5a4.59,4.59,0,0,0,0-9.17Z"/><path class="cls-40" d="M398.69,49.23a9.57,9.57,0,1,1-9.57-9.57A9.56,9.56,0,0,1,398.69,49.23Z"/><path class="cls-41" d="M608,502.37a9.56,9.56,0,1,1-9.56-9.56A9.56,9.56,0,0,1,608,502.37Z"/><circle class="cls-42" cx="210.49" cy="66.82" r="49.72"/><path class="cls-43" d="M196.93,55.52a9,9,0,1,1-9-9A9,9,0,0,1,196.93,55.52Z"/><path class="cls-43" d="M239.87,55.52a9,9,0,1,1-9-9A9,9,0,0,1,239.87,55.52Z"/><path class="cls-22" d="M192.41,71.34h33.9a2.26,2.26,0,0,1,2.26,2.26v9a18.08,18.08,0,0,1-18.08,18.08h-2.26a18.08,18.08,0,0,1-18.08-18.08v-9a2.26,2.26,0,0,1,2.26-2.26Z"/></g></g></svg>