<svg xmlns="http://www.w3.org/2000/svg" xmlns:xlink="http://www.w3.org/1999/xlink" viewBox="0 0 578.32 478.54"><defs><style>.cls-1{fill:url(#New_Gradient_Swatch);}.cls-2{fill:url(#New_Gradient_Swatch-2);}.cls-3{fill:url(#New_Gradient_Swatch-3);}.cls-4{fill:#b3e2fc;}.cls-5{fill:url(#New_Gradient_Swatch-4);}.cls-6{fill:#f4f0ff;}.cls-7{fill:#c5c0d8;}.cls-8{fill:#e8e3f8;}.cls-9{fill:#fff;}.cls-10{fill:url(#New_Gradient_Swatch_copy);}.cls-11{fill:#3b3457;}.cls-12{fill:#3900a3;}.cls-13{fill:url(#New_Gradient_Swatch_copy-2);}.cls-14{fill:#ff4b60;}.cls-15{fill:url(#New_Gradient_Swatch_copy-3);}.cls-16{fill:url(#New_Gradient_Swatch_copy_2);}.cls-17{fill:url(#New_Gradient_Swatch_copy-4);}.cls-18{fill:url(#New_Gradient_Swatch_copy_2-2);}.cls-19{fill:url(#New_Gradient_Swatch_copy_2-3);}.cls-20{fill:url(#New_Gradient_Swatch_copy_4);}.cls-21{fill:#5251de;}.cls-22{fill:url(#New_Gradient_Swatch_copy-5);}.cls-23{fill:#813abe;}.cls-24{fill:url(#New_Gradient_Swatch_copy-6);}.cls-25{fill:url(#New_Gradient_Swatch_copy-7);}.cls-26{fill:#fa6c69;}.cls-27{fill:#e34355;}.cls-28{fill:#d13e4e;}.cls-29{fill:#89bfeb;}.cls-30{fill:url(#linear-gradient);}.cls-31{fill:url(#linear-gradient-2);}.cls-32{fill:url(#New_Gradient_Swatch_copy_6);}.cls-33{fill:url(#linear-gradient-3);}.cls-34{fill:url(#linear-gradient-4);}.cls-35{fill:url(#New_Gradient_Swatch_copy_2-4);}.cls-36{fill:url(#New_Gradient_Swatch_copy_2-5);}.cls-37{fill:url(#linear-gradient-5);}.cls-38{fill:#8a7ebf;}.cls-39{fill:url(#New_Gradient_Swatch_copy-8);}.cls-40{fill:url(#New_Gradient_Swatch_copy_3);}.cls-41{fill:url(#linear-gradient-6);}.cls-42{fill:#fdcca3;}.cls-43{fill:url(#New_Gradient_Swatch_copy-9);}.cls-44{fill:url(#New_Gradient_Swatch_copy_6-2);}.cls-45{fill:url(#New_Gradient_Swatch_copy_3-2);}.cls-46{fill:url(#New_Gradient_Swatch_copy_3-3);}.cls-47{fill:url(#New_Gradient_Swatch-5);}.cls-48{fill:#95d0ff;}.cls-49{fill:#007fc3;}.cls-50{fill:#2b94e3;}.cls-51{fill:url(#New_Gradient_Swatch_copy_6-3);}.cls-52{fill:#ffb876;}.cls-53{fill:url(#New_Gradient_Swatch_copy_6-4);}.cls-54{fill:url(#New_Gradient_Swatch_copy_6-5);}.cls-55{fill:url(#New_Gradient_Swatch_copy-10);}.cls-56{fill:url(#New_Gradient_Swatch_copy-11);}.cls-57{fill:url(#New_Gradient_Swatch_copy-12);}.cls-58{fill:url(#New_Gradient_Swatch_copy_4-2);}.cls-59{fill:url(#New_Gradient_Swatch-6);}.cls-60{fill:#b5b1c7;}.cls-61{fill:url(#New_Gradient_Swatch_copy_4-3);}.cls-62{fill:url(#linear-gradient-7);}.cls-63{fill:url(#New_Gradient_Swatch_copy_6-6);}.cls-64{fill:url(#linear-gradient-8);}.cls-65{fill:url(#New_Gradient_Swatch_copy_6-7);}.cls-66{fill:url(#New_Gradient_Swatch-7);}.cls-67{fill:url(#New_Gradient_Swatch_copy_6-8);}.cls-68{fill:url(#linear-gradient-9);}.cls-69{fill:url(#New_Gradient_Swatch-8);}</style><linearGradient id="New_Gradient_Swatch" x1="265.96" y1="533.32" x2="265.96" y2="404.04" gradientTransform="translate(19.19 10.02) rotate(-0.53)" gradientUnits="userSpaceOnUse"><stop offset="0" stop-color="#3900a3"/><stop offset="0" stop-color="#bebad1"/><stop offset="0.5" stop-color="#e8e3f8"/><stop offset="1" stop-color="#f4f0ff"/></linearGradient><linearGradient id="New_Gradient_Swatch-2" x1="367.44" y1="368.56" x2="509.13" y2="54.38" gradientTransform="matrix(1, 0, 0, 1, 0, 0)" xlink:href="#New_Gradient_Swatch"/><linearGradient id="New_Gradient_Swatch-3" x1="464.13" y1="339.57" x2="493.39" y2="14.6" gradientTransform="matrix(1, 0, 0, 1, 0, 0)" xlink:href="#New_Gradient_Swatch"/><linearGradient id="New_Gradient_Swatch-4" x1="16.58" y1="350.72" x2="181.48" y2="149.11" gradientTransform="matrix(1, 0, 0, 1, 0, 0)" xlink:href="#New_Gradient_Swatch"/><linearGradient id="New_Gradient_Swatch_copy" x1="844.13" y1="424.34" x2="844.13" y2="461" gradientTransform="translate(-775.22)" gradientUnits="userSpaceOnUse"><stop offset="0" stop-color="#ffb876"/><stop offset="1" stop-color="#fdcca3"/></linearGradient><linearGradient id="New_Gradient_Swatch_copy-2" x1="826.71" y1="334.16" x2="826.71" y2="374.51" xlink:href="#New_Gradient_Swatch_copy"/><linearGradient id="New_Gradient_Swatch_copy-3" x1="64.57" y1="242.93" x2="83.25" y2="277.78" gradientTransform="matrix(1, 0, 0, 1, 0, 0)" xlink:href="#New_Gradient_Swatch_copy"/><linearGradient id="New_Gradient_Swatch_copy_2" x1="71.57" y1="270.68" x2="74.45" y2="235.49" gradientUnits="userSpaceOnUse"><stop offset="0" stop-color="#813abe"/><stop offset="1" stop-color="#e55ec9"/></linearGradient><linearGradient id="New_Gradient_Swatch_copy-4" x1="69.62" y1="240.22" x2="88.31" y2="275.07" gradientTransform="matrix(1, 0, 0, 1, 0, 0)" xlink:href="#New_Gradient_Swatch_copy"/><linearGradient id="New_Gradient_Swatch_copy_2-2" x1="78.8" y1="271.27" x2="81.68" y2="236.08" xlink:href="#New_Gradient_Swatch_copy_2"/><linearGradient id="New_Gradient_Swatch_copy_2-3" x1="62.72" y1="246.63" x2="63.68" y2="222.96" xlink:href="#New_Gradient_Swatch_copy_2"/><linearGradient id="New_Gradient_Swatch_copy_4" x1="70.22" y1="264.14" x2="71.41" y2="328.36" gradientUnits="userSpaceOnUse"><stop offset="0" stop-color="#3900a3"/><stop offset="1" stop-color="#5251de"/></linearGradient><linearGradient id="New_Gradient_Swatch_copy-5" x1="895.81" y1="271.6" x2="896.4" y2="318.21" xlink:href="#New_Gradient_Swatch_copy"/><linearGradient id="New_Gradient_Swatch_copy-6" x1="900.94" y1="271.54" x2="901.53" y2="318.14" xlink:href="#New_Gradient_Swatch_copy"/><linearGradient id="New_Gradient_Swatch_copy-7" x1="863.93" y1="424.34" x2="863.93" y2="461" xlink:href="#New_Gradient_Swatch_copy"/><linearGradient id="linear-gradient" x1="307.83" y1="489.91" x2="317.34" y2="281.09" gradientUnits="userSpaceOnUse"><stop offset="0" stop-color="#cde9fd"/><stop offset="1" stop-color="#95d0ff"/></linearGradient><linearGradient id="linear-gradient-2" x1="389.6" y1="493.64" x2="399.11" y2="284.81" xlink:href="#linear-gradient"/><linearGradient id="New_Gradient_Swatch_copy_6" x1="304.78" y1="348.04" x2="390.91" y2="233.43" gradientUnits="userSpaceOnUse"><stop offset="0" stop-color="#e55ec9"/><stop offset="1" stop-color="#fdf2fb"/></linearGradient><linearGradient id="linear-gradient-3" x1="353.87" y1="122.6" x2="353.34" y2="244.5" gradientUnits="userSpaceOnUse"><stop offset="0" stop-color="#3900a3"/><stop offset="0.29" stop-color="#4423bc"/><stop offset="0.56" stop-color="#4c3ccf"/><stop offset="0.8" stop-color="#504cda"/><stop offset="1" stop-color="#5251de"/></linearGradient><linearGradient id="linear-gradient-4" x1="228.6" y1="285.25" x2="278.47" y2="46.08" gradientTransform="translate(549.6 197.51) rotate(160)" gradientUnits="userSpaceOnUse"><stop offset="0" stop-color="#4f1cad"/><stop offset="0.2" stop-color="#5a3bc3"/><stop offset="0.4" stop-color="#6354d4"/><stop offset="0.59" stop-color="#6864df"/><stop offset="0.74" stop-color="#6a69e3"/></linearGradient><linearGradient id="New_Gradient_Swatch_copy_2-4" x1="173.64" y1="602.42" x2="348.56" y2="167.11" xlink:href="#New_Gradient_Swatch_copy_2"/><linearGradient id="New_Gradient_Swatch_copy_2-5" x1="205.68" y1="390.45" x2="223.65" y2="266.66" gradientTransform="translate(433.52 628.34) rotate(180)" xlink:href="#New_Gradient_Swatch_copy_2"/><linearGradient id="linear-gradient-5" x1="271.98" y1="437.62" x2="271.98" y2="374.08" gradientTransform="translate(543.96 827) rotate(180)" xlink:href="#linear-gradient-3"/><linearGradient id="New_Gradient_Swatch_copy-8" x1="322.79" y1="4.01" x2="328.49" y2="60.25" gradientTransform="matrix(1, 0, 0, 1, 0, 0)" xlink:href="#New_Gradient_Swatch_copy"/><linearGradient id="New_Gradient_Swatch_copy_3" x1="339.36" y1="43.03" x2="343.75" y2="144.29" gradientUnits="userSpaceOnUse"><stop offset="0" stop-color="#1194f6"/><stop offset="1" stop-color="#95d0ff"/></linearGradient><linearGradient id="linear-gradient-6" x1="272.35" y1="79.4" x2="349.84" y2="79.4" xlink:href="#New_Gradient_Swatch_copy_3"/><linearGradient id="New_Gradient_Swatch_copy-9" x1="324.81" y1="3.8" x2="330.51" y2="60.04" gradientTransform="matrix(1, 0, 0, 1, 0, 0)" xlink:href="#New_Gradient_Swatch_copy"/><linearGradient id="New_Gradient_Swatch_copy_6-2" x1="189.87" y1="314.56" x2="191.12" y2="250.57" xlink:href="#New_Gradient_Swatch_copy_6"/><linearGradient id="New_Gradient_Swatch_copy_3-2" x1="243.51" y1="309.16" x2="242.65" y2="277.34" xlink:href="#New_Gradient_Swatch_copy_3"/><linearGradient id="New_Gradient_Swatch_copy_3-3" x1="466.63" y1="508.18" x2="505.86" y2="251.97" xlink:href="#New_Gradient_Swatch_copy_3"/><linearGradient id="New_Gradient_Swatch-5" x1="444.43" y1="442.73" x2="499.41" y2="339.28" gradientTransform="matrix(1, 0, 0, 1, 0, 0)" xlink:href="#New_Gradient_Swatch"/><linearGradient id="New_Gradient_Swatch_copy_6-3" x1="489.24" y1="266.58" x2="489.8" y2="352.59" xlink:href="#New_Gradient_Swatch_copy_6"/><linearGradient id="New_Gradient_Swatch_copy_6-4" x1="460.14" y1="266.77" x2="460.71" y2="352.79" xlink:href="#New_Gradient_Swatch_copy_6"/><linearGradient id="New_Gradient_Swatch_copy_6-5" x1="516.21" y1="266.4" x2="516.78" y2="352.42" xlink:href="#New_Gradient_Swatch_copy_6"/><linearGradient id="New_Gradient_Swatch_copy-10" x1="489.67" y1="225.74" x2="489.34" y2="261.3" gradientTransform="matrix(1, 0, 0, 1, 0, 0)" xlink:href="#New_Gradient_Swatch_copy"/><linearGradient id="New_Gradient_Swatch_copy-11" x1="502.6" y1="225.86" x2="502.27" y2="261.42" gradientTransform="matrix(1, 0, 0, 1, 0, 0)" xlink:href="#New_Gradient_Swatch_copy"/><linearGradient id="New_Gradient_Swatch_copy-12" x1="476.76" y1="225.62" x2="476.44" y2="261.18" gradientTransform="matrix(1, 0, 0, 1, 0, 0)" xlink:href="#New_Gradient_Swatch_copy"/><linearGradient id="New_Gradient_Swatch_copy_4-2" x1="490.73" y1="349.21" x2="427.52" y2="323.58" xlink:href="#New_Gradient_Swatch_copy_4"/><linearGradient id="New_Gradient_Swatch-6" x1="472.3" y1="332.55" x2="506.06" y2="276.06" gradientTransform="matrix(1, 0, 0, 1, 0, 0)" xlink:href="#New_Gradient_Swatch"/><linearGradient id="New_Gradient_Swatch_copy_4-3" x1="532.36" y1="323.95" x2="474.42" y2="355.91" xlink:href="#New_Gradient_Swatch_copy_4"/><linearGradient id="linear-gradient-7" x1="533.18" y1="494.03" x2="543.27" y2="416.84" gradientUnits="userSpaceOnUse"><stop offset="0" stop-color="#115df6" stop-opacity="0.5"/><stop offset="0.39" stop-color="#6cbbf6"/><stop offset="0.48" stop-color="#83c6f7"/><stop offset="0.84" stop-color="#dbeefc"/><stop offset="1" stop-color="#fefefe"/></linearGradient><linearGradient id="New_Gradient_Swatch_copy_6-6" x1="503.69" y1="473.17" x2="504.28" y2="424.2" xlink:href="#New_Gradient_Swatch_copy_6"/><linearGradient id="linear-gradient-8" x1="203.7" y1="434.95" x2="313.73" y2="434.95" xlink:href="#linear-gradient"/><linearGradient id="New_Gradient_Swatch_copy_6-7" x1="200.04" y1="479.34" x2="219.05" y2="426.48" xlink:href="#New_Gradient_Swatch_copy_6"/><linearGradient id="New_Gradient_Swatch-7" x1="120.49" y1="176.93" x2="192.9" y2="105.5" gradientTransform="matrix(1, 0, 0, 1, 0, 0)" xlink:href="#New_Gradient_Swatch"/><linearGradient id="New_Gradient_Swatch_copy_6-8" x1="410.77" y1="199.11" x2="395.12" y2="76.79" xlink:href="#New_Gradient_Swatch_copy_6"/><linearGradient id="linear-gradient-9" x1="200.82" y1="142.61" x2="216.58" y2="85.49" gradientUnits="userSpaceOnUse"><stop offset="0" stop-color="#1194f6"/><stop offset="1" stop-color="#c0e3ff"/></linearGradient><linearGradient id="New_Gradient_Swatch-8" x1="518.85" y1="254.91" x2="551.68" y2="89.36" gradientTransform="matrix(1, 0, 0, 1, 0, 0)" xlink:href="#New_Gradient_Swatch"/></defs><g id="Layer_2" data-name="Layer 2"><g id="Object"><path class="cls-1" d="M47.42,425.56c-13.44-.36-27.73,0-39,7.32S-2,439.76,6.32,450.39c6.3,8.05,17.69,9.43,27.85,10.12,67.17,4.57,107,12,172.94,16.11,99.66,6.27,228.65-4.62,330.36-6.55,14.69-.28,32.2-2.23,39-15.34,6.53-12.61-5.3-16-17.66-22.91s-27.21-6.93-41.34-6.8L115.2,428.8S60.86,425.93,47.42,425.56Z"/><path class="cls-2" d="M504.41,170.89l-20.32-20.32a5.21,5.21,0,0,0-7.38,0L465.29,162a69.33,69.33,0,0,0-13-4.92V140.94a5.22,5.22,0,0,0-5.22-5.22H418.32a5.22,5.22,0,0,0-5.22,5.22v17a69,69,0,0,0-12.29,5.26L389,151.42a5.21,5.21,0,0,0-7.38,0l-20.32,20.32a5.21,5.21,0,0,0,0,7.38l11.81,11.81a68.46,68.46,0,0,0-5.37,12.63H351.68a5.22,5.22,0,0,0-5.22,5.22v28.74a5.22,5.22,0,0,0,5.22,5.21h15.37a68.92,68.92,0,0,0,5.4,13.81l-10.29,10.29a5.2,5.2,0,0,0,0,7.37l20.32,20.33a5.23,5.23,0,0,0,7.38,0l9.74-9.74a69.9,69.9,0,0,0,14.7,6.32v13a5.22,5.22,0,0,0,5.22,5.22h28.74a5.22,5.22,0,0,0,5.22-5.22V291.3a69.83,69.83,0,0,0,15.27-6.45l8.82,8.82a5.21,5.21,0,0,0,7.38,0l20.32-20.32a5.23,5.23,0,0,0,0-7.38l-9.31-9.3a69.46,69.46,0,0,0,5.78-15.14h13.15a5.22,5.22,0,0,0,5.22-5.22V207.57a5.22,5.22,0,0,0-5.22-5.21H500.33a69,69,0,0,0-6.28-13.73l10.36-10.36A5.21,5.21,0,0,0,504.41,170.89Zm-45.72,77.05a35.92,35.92,0,1,1,0-50.79A35.92,35.92,0,0,1,458.69,247.94Z"/><path class="cls-3" d="M540.15,77,533.09,60.4a3.28,3.28,0,0,0-4.3-1.73l-9.34,4A42.88,42.88,0,0,0,513,56.71l3.8-9.4A3.28,3.28,0,0,0,515,43.05l-16.74-6.76A3.27,3.27,0,0,0,494,38.1L490,48a42.85,42.85,0,0,0-8.39.17l-4.1-9.66a3.28,3.28,0,0,0-4.3-1.73l-16.61,7a3.28,3.28,0,0,0-1.74,4.3l4.1,9.66a43.34,43.34,0,0,0-6.09,6.1l-9.36-3.78A3.28,3.28,0,0,0,439.23,62l-6.76,16.74A3.29,3.29,0,0,0,434.28,83l9,3.61a43.87,43.87,0,0,0-.11,9.31l-8.41,3.58a3.27,3.27,0,0,0-1.73,4.29l7.06,16.62a3.27,3.27,0,0,0,4.3,1.73l8-3.38a43.49,43.49,0,0,0,7.08,7.14l-3.07,7.6a3.29,3.29,0,0,0,1.81,4.27l16.74,6.75a3.28,3.28,0,0,0,4.27-1.81l3-7.49a43.22,43.22,0,0,0,10.41-.16l3.07,7.21a3.28,3.28,0,0,0,4.3,1.74l16.61-7.06a3.28,3.28,0,0,0,1.74-4.3L515.05,125a43.61,43.61,0,0,0,6.93-7.46l7.66,3.09a3.28,3.28,0,0,0,4.27-1.81l6.76-16.74a3.28,3.28,0,0,0-1.82-4.26l-8.48-3.43a43.08,43.08,0,0,0-.43-9.47l8.47-3.6A3.28,3.28,0,0,0,540.15,77Zm-44.76,34.13a22.56,22.56,0,1,1,11.95-29.59A22.55,22.55,0,0,1,495.39,111.15Z"/><polygon class="cls-4" points="42 222.34 38.92 219.78 89.91 158.5 140.89 219.78 137.82 222.34 89.91 164.76 42 222.34"/><rect class="cls-5" x="21.42" y="213.74" width="136.97" height="94.64"/><rect class="cls-6" x="53.04" y="203.02" width="73.74" height="116.08" transform="translate(350.97 171.16) rotate(90)"/><circle class="cls-7" cx="112.58" cy="252.71" r="17.95"/><path class="cls-8" d="M130.51,253.35c0-.21,0-.43,0-.64a18,18,0,0,0-17.94-18v18.59Z"/><path class="cls-9" d="M112.58,253.35l12.36,12.36a17.85,17.85,0,0,0,5.57-12.36Z"/><circle class="cls-7" cx="89.91" cy="161.63" r="6.83"/><path class="cls-10" d="M56.29,435s-1.3,7.7-.79,10.81,3.56,3.11,7.74,3.11H79.87c2.67,0,4.7-2.35-1.65-4.63s-11.42-7-12.82-9.9Z"/><path class="cls-11" d="M63.24,448.87H79.87c2.67,0,4.7-2.35-1.65-4.63l-.78-.3c-3,.93-8.08,2.17-11.4,1.06s-7.93-2.76-10.54-3.7a21.22,21.22,0,0,0,0,4.46C56,448.87,59.06,448.87,63.24,448.87Z"/><circle class="cls-4" cx="80.07" cy="391.54" r="3.28"/><path class="cls-12" d="M50.45,279.16s-4.21,22-4.21,33a146.92,146.92,0,0,0,2.1,22.61h7.88L57.85,307Z"/><path class="cls-13" d="M48.34,334.79s-2.8,7.48-1,10.6,5,6.68,6.7,6.22,1.37-5,1.37-5l.77-11.86Z"/><path class="cls-14" d="M60.05,323.79s-9.63,11.13-4.43,26c0,0,2.34,26.33,1.45,39.33s-2.92,34.38-3,45.84H68.25l7.84-53-2.51-58.2Z"/><path class="cls-15" d="M72.61,237.48c9.26,1.06,13.08,3.76,13.08,13.08s-1.47,15.86-5.56,15.86-4.41,1-4.41,5.23v4.25H62.64s2.28-7.35,2.28-12.91-2.28-7.2-2.28-13.58S67,236.83,72.61,237.48Z"/><path class="cls-16" d="M83.46,248.62s1.81,3.14,3.86,3,6.43-3.15,2.9-8.93a11.93,11.93,0,0,0-3.14-3.38s-.24-5.19-8.08-8.08-18.71-.73-22.33,8.81,3.14,16.77,4.47,18.82.84,6.4,2.77,6.4A1.85,1.85,0,0,0,66,263.71a2.44,2.44,0,0,0,3.13.24C72,261.66,80.08,247.3,83.46,248.62Z"/><path class="cls-17" d="M79,250.55s-2.91-4-4.84-1.81-1.08,8.93,2.91,8.57Z"/><path class="cls-18" d="M78.15,244.64s-1,10.26.85,10.86,4.46-6.88,4.46-6.88C84.06,246.21,78.15,244.64,78.15,244.64Z"/><path class="cls-19" d="M56.38,231.63c1.14,4.76,6.12,7.92,10.15,5.8S71.18,231.88,70,227,54.55,223.93,56.38,231.63Z"/><path class="cls-20" d="M50.45,279.16c3.38-5.8,8.53-9.29,20.07-8.85s21.31,5.85,21,15.65-5.86,37.83-5.86,37.83H60.05s-5.4-18.69-8.2-26.76S49.36,281,50.45,279.16Z"/><path class="cls-21" d="M87.11,275.9c6.41.08,9.17,16.79,12.17,21.13s7.8.54,10.81-1.46,7.8-6,7.8-6l5,5.6s-6,16.61-19.61,18.41-24.35-18-24.28-23.41S82.74,275.85,87.11,275.9Z"/><path class="cls-22" d="M117.89,289.57a49.09,49.09,0,0,1,0-8.1c.4-3.48,3.11-3.33,3.35-7.1.13-2.14,2.84-2,2.41,2.15-.27,2.54-.57,7.36-.76,6.69s2.6,6.51-1.13,10.69Z"/><rect class="cls-23" x="123.39" y="262.54" width="2.79" height="29.56" transform="matrix(0.64, -0.77, 0.77, 0.64, -167.81, 194.45)"/><path class="cls-24" d="M118.9,286.71s7.49-12.56,9.24-12.19,1.88,2.26,1.34,3.67c0,0,2.41.34,2.14,2.42s4.15,6.23-2,10.65-8.11,2.51-8.11,2.51Z"/><path class="cls-25" d="M76.09,435s-1.3,7.7-.79,10.81,3.55,3.11,7.74,3.11H99.67c2.66,0,4.69-2.35-1.65-4.63s-11.42-7-12.82-9.9Z"/><path class="cls-11" d="M83,448.87H99.67c2.66,0,4.69-2.35-1.65-4.63l-.78-.3c-3,.93-8.08,2.17-11.4,1.06s-7.94-2.76-10.54-3.7a21.22,21.22,0,0,0,0,4.46C75.81,448.87,78.85,448.87,83,448.87Z"/><path class="cls-26" d="M85.69,323.79s5.32,12.06,5.87,34S88.62,435,88.62,435H73.21s.62-43.67,0-51.72-4.34-25.71-4.34-25.71-13-15.75-1.24-33.73Z"/><path class="cls-27" d="M71.78,334.79s9.36.17,12.61,0v3s-8.61.75-12.61,0Z"/><path class="cls-28" d="M59.56,338.09v-3.3A17.7,17.7,0,0,1,55,334a26.67,26.67,0,0,0-.71,3.68A32.29,32.29,0,0,0,59.56,338.09Z"/><rect class="cls-29" x="316.24" y="310.91" width="75.54" height="12.44"/><rect class="cls-29" x="316.24" y="358.66" width="75.54" height="12.44"/><polygon class="cls-30" points="310.25 448.87 295.35 448.87 316.24 292.91 331.15 292.91 310.25 448.87"/><polygon class="cls-31" points="398.18 448.87 413.09 448.87 392.19 292.91 377.28 292.91 398.18 448.87"/><rect class="cls-32" x="306.11" y="270.91" width="96.74" height="22" rx="4.18"/><path class="cls-12" d="M331.33,136.66s-4.71,50.89-3.13,62.08,11.69,61.59,11.69,61.59a58.8,58.8,0,0,0,16.47.5l-8.55-124.17Z"/><path class="cls-33" d="M364.2,136.66s9.22,9.77,2.39,32.06c0,0-2,22.21-1.66,33.94s6.64,39,7.59,55.44a42.31,42.31,0,0,1-21.86,2.23s-7.42-43.42-8.62-56.09-7.49-61.86-7.49-61.86Z"/><path class="cls-11" d="M341.92,260.66s-4.22,4-9.13,4.78-7.89,2.12-4.91,4.23,10.63.87,15.62.87,10.47-.29,12.39-.29-1.25-9.59-1.25-9.59Z"/><path class="cls-11" d="M357.93,260.66s-4.22,4-9.13,4.78-7.89,2.12-4.91,4.23,10.63.87,15.62.87,9.54.25,11.38-.29c2.1-.62-1.07-12.17-1.07-12.17Z"/><rect class="cls-34" x="228.22" y="69.67" width="58.33" height="155.07" transform="translate(448.9 373.57) rotate(-160)"/><rect class="cls-23" x="205.37" y="219.79" width="47.92" height="8.96" transform="translate(368.13 513.46) rotate(-160)"/><rect class="cls-7" x="217.01" y="228.22" width="18.52" height="8.96" transform="translate(359.31 528.75) rotate(-160)"/><path class="cls-23" d="M257.26,60.05h58.33a0,0,0,0,1,0,0v0a14.74,14.74,0,0,1-14.74,14.74H272a14.74,14.74,0,0,1-14.74-14.74v0A0,0,0,0,1,257.26,60.05Z" transform="translate(532.52 228.74) rotate(-160)"/><rect class="cls-7" x="280.48" y="41.47" width="23.64" height="19.61" transform="translate(549.43 199.44) rotate(-160)"/><path class="cls-35" d="M278.65,398.19H173.14V366.84H278.65a75.51,75.51,0,0,0,0-151V184.49a106.85,106.85,0,0,1,0,213.7Z"/><rect class="cls-23" x="198.89" y="323.66" width="35.73" height="44.51" transform="translate(433.52 691.83) rotate(-180)"/><rect class="cls-36" x="170.05" y="304.67" width="93.42" height="18.99" rx="2.09" transform="translate(433.52 628.34) rotate(-180)"/><rect class="cls-37" x="132.19" y="397.99" width="279.58" height="31.02" rx="2.09" transform="translate(543.96 827) rotate(-180)"/><polygon class="cls-38" points="359.33 447.59 380.31 447.59 386.58 429.01 353.06 429.01 359.33 447.59"/><polygon class="cls-38" points="156.26 447.59 177.24 447.59 183.51 429.01 149.99 429.01 156.26 447.59"/><path class="cls-39" d="M307.79,15.53c-.18,5.18-.25,13.44,3.3,21.38s7.08,9.9,10.75,7.7,5.37-2.2,6.23,2.08,2.69,10.5,2.69,10.5l13.92-3.91s-6.23-11.85-7.45-21.62S337.79,7.35,326.09,6,308,9,307.79,15.53Z"/><path class="cls-26" d="M303.51,9.91s-5-1.71-4.52,1,2.81,8.43,10,8.31,13.3.19,14.53,4.8S336,38.69,338.33,37.13s0-6.2,0-6.2,2.69,3.91,3.91,1.34-2.08-4.31-1.59-8.93S343.2,5.51,336,5.76c0,0-1.84-7.21-9.78-5.5s-16.57,2.81-20,1.35S298,.63,303.51,9.91Z"/><path class="cls-26" d="M316,16.27s5,14.89,7.57,13.43.62-13.43.62-13.43Z"/><path class="cls-40" d="M335.73,46.59c5.68-2.49,14.77-.68,22.49,22.26s3.31,54.55,6,67.81c.66,3.26-27.51,10.32-34.32,3.42-3.33-3.37-6.05-32.49-9-49.92S321.5,52.84,335.73,46.59Z"/><path class="cls-41" d="M342.27,54.79c14.75,2.38,8.27,30-22.4,44.66-19.1,9.13-47.52,2.28-47.52,2.28a67.39,67.39,0,0,1,1.51-12.94s29.89-1,40.29-8.4S327.88,52.47,342.27,54.79Z"/><path class="cls-42" d="M273.86,88.79a10,10,0,0,0-4.22-5.74c-3.41-2.11-4.58-2.93-5.87-4.23s-3.88,1.29-.59,5,5.37,5.35-1.6,5.46-10.14-2.11-11.19,1.88-.59,11.39,6,12.21,16-1.63,16-1.63Z"/><path class="cls-43" d="M323.81,32.86a4.28,4.28,0,0,0,4.55.65c2.4-1.24,3.79-6.64,1.7-10.52s-6.52,1-6.52,1Z"/><rect class="cls-23" x="270.99" y="169.63" width="33.82" height="56.89" transform="translate(85.11 -86.52) rotate(20)"/><path class="cls-44" d="M181.36,268.15h18a4.18,4.18,0,0,1,4.18,4.18v32.34a0,0,0,0,1,0,0H177.19a0,0,0,0,1,0,0V272.33A4.18,4.18,0,0,1,181.36,268.15Z"/><path class="cls-45" d="M234.13,281.91h18a4.18,4.18,0,0,1,4.18,4.18v18.59a0,0,0,0,1,0,0H229.95a0,0,0,0,1,0,0V286.09A4.18,4.18,0,0,1,234.13,281.91Z"/><path class="cls-14" d="M207.75,247.69h18a4.18,4.18,0,0,1,4.18,4.18v52.81a0,0,0,0,1,0,0H203.57a0,0,0,0,1,0,0V251.86A4.18,4.18,0,0,1,207.75,247.69Z"/><path class="cls-46" d="M425.35,340.67H541.77a6.27,6.27,0,0,1,6.27,6.27V448.72a0,0,0,0,1,0,0h-129a0,0,0,0,1,0,0V346.94A6.27,6.27,0,0,1,425.35,340.67Z"/><rect class="cls-47" x="429.53" y="351.11" width="108.06" height="35.96" rx="2.09"/><rect class="cls-48" x="527.45" y="397.01" width="10.14" height="19.38" rx="2.09"/><rect class="cls-48" x="512.08" y="397.01" width="10.14" height="19.38" rx="2.09"/><rect class="cls-48" x="496.14" y="397.01" width="10.14" height="19.38" rx="2.09"/><rect class="cls-49" x="429.53" y="395.95" width="45.66" height="45.66" rx="22.83"/><circle class="cls-50" cx="431.74" cy="398.15" r="2.2"/><circle class="cls-50" cx="473.01" cy="398.15" r="2.2"/><circle class="cls-50" cx="431.74" cy="440.02" r="2.2"/><circle class="cls-50" cx="473.01" cy="440.02" r="2.2"/><path class="cls-7" d="M452,370.84h9.5a0,0,0,0,1,0,0v10.82a1.12,1.12,0,0,1-1.12,1.12h-7.26a1.12,1.12,0,0,1-1.12-1.12V370.84A0,0,0,0,1,452,370.84Z" transform="translate(913.4 753.61) rotate(-180)"/><path class="cls-7" d="M466.74,365.74h9.5a0,0,0,0,1,0,0v15.91a1.12,1.12,0,0,1-1.12,1.12h-7.26a1.12,1.12,0,0,1-1.12-1.12V365.74A0,0,0,0,1,466.74,365.74Z" transform="translate(942.99 748.52) rotate(-180)"/><path class="cls-7" d="M438.3,374.06h9.5a0,0,0,0,1,0,0v7.6a1.12,1.12,0,0,1-1.12,1.12h-7.26a1.12,1.12,0,0,1-1.12-1.12v-7.6A0,0,0,0,1,438.3,374.06Z" transform="translate(886.1 756.83) rotate(-180)"/><polygon class="cls-12" points="471.7 323.94 465.64 331.46 490.89 339.94 512 331.94 507.68 324.78 471.7 323.94"/><path class="cls-51" d="M489.54,262.88c-17.5,0-28.17,2.71-27,12.53s4.58,43.53,9.15,45.39,31.49,3.05,36,.85,7.71-35.57,8.39-46.41S508.06,262.88,489.54,262.88Z"/><path class="cls-52" d="M456.07,294.67s-3.81,19.07,2.58,24.54,16.22,3.63,16.22,3.63l-9.23-27.55Z"/><path class="cls-52" d="M520.6,292.86s5.95,21.5,0,25.48-17.38.7-17.38.7l10-26.18Z"/><path class="cls-53" d="M467.57,266.14c-10.78,3.85-12.3,15.37-14.67,30.1,0,0,7.66,2.38,14.67,1.19Z"/><path class="cls-54" d="M510.44,265.18c8.17,3.63,12.23,15.15,13.25,29.54a20.74,20.74,0,0,1-14.56,3Z"/><path class="cls-23" d="M476.76,251.32a51.08,51.08,0,0,1,2.72,5.94c.55,1.86,1.93,3.21,2.66,0,0,0-.24,5.39,7.07,5.39s7.64-2.16,8.48-6.5c0,0,.25,2.73,1.19,2.73s1.75-4.41,3.41-7.56a36.34,36.34,0,0,0,2.55-16.94c-.9-9.42-5.7-13.31-15.57-13.31S465.55,229.32,476.76,251.32Z"/><path class="cls-52" d="M484.15,257.86s.28,4.75-1.94,7.23-1.42,8.74,7.31,8.74,8.87-6.92,7.57-8.22-2.61-5.87-2.22-8.35Z"/><path class="cls-55" d="M489.56,227.29c8.81.09,14.09,7.91,12.42,17.67s-6.35,15.58-12.39,16.36-9.87-6.79-12.15-14.81S478.47,227.17,489.56,227.29Z"/><path class="cls-56" d="M500,245.68s2.42-2.7,4.1-1.57.49,9.54-4.19,8.08Z"/><path class="cls-57" d="M477.44,246.51a2.85,2.85,0,0,0-3.15-1.46c-2.05.6.8,9.92,5.19,7.33Z"/><path class="cls-23" d="M503,241.59s-1.3,7.28-2.58,6.85-1-8.6-8.88-13.06c0,0,2.37,5.57.46,6.07s-11.48-5.23-11.48-5.23-2.27,10.55-2.35,12.54-4-4.71-4.34-10.71l6.73-10.62L490,225.2l11.26,5.26Z"/><path class="cls-58" d="M439.21,326c-5.67,9.23.6,14,8.09,16.93s42.24,8.64,42.24,8.64a99,99,0,0,0,1.35-11.6S464,327.12,457.3,324.36,443.55,318.91,439.21,326Z"/><path class="cls-59" d="M508.43,325.75H469.2a2.08,2.08,0,0,1-2-1.61l-6.33-26.9a2.09,2.09,0,0,1,2-2.57h51a2.09,2.09,0,0,1,2,2.5l-5.42,26.91A2.1,2.1,0,0,1,508.43,325.75Z"/><rect class="cls-60" x="465.64" y="325.75" width="46.35" height="4.64" rx="2.32"/><path class="cls-61" d="M474.87,339.89c9.69-2.47,36.11-14.26,44.86-15.78s13.49.38,14.63,6.09-4.18,12.35-12.54,14.63-32.31,7.6-47,8.36Z"/><path class="cls-11" d="M474.87,339.89s7.1,3.79,0,13.3H464c-4.46,0-7-7.71-6.66-12.44S465.75,338.35,474.87,339.89Z"/><path class="cls-62" d="M528.51,440a20.75,20.75,0,0,1,20.75,20.75H528.51Z"/><path class="cls-63" d="M522.63,423.22a37.57,37.57,0,0,0-37.58,37.57h37.58Z"/><path class="cls-64" d="M258.71,429.67a32.78,32.78,0,0,1,32.78,32.78h22.24a55,55,0,0,0-110,0h22.23A32.78,32.78,0,0,1,258.71,429.67Z"/><path class="cls-65" d="M207.49,436.34a26.12,26.12,0,0,1,26.12,26.11h17.7a43.82,43.82,0,1,0-87.64,0h17.71A26.11,26.11,0,0,1,207.49,436.34Z"/><path class="cls-66" d="M158.21,143h-3.38v-3.37a3.08,3.08,0,1,0-6.15,0V143h-3.37a3.08,3.08,0,0,0,0,6.15h3.37v3.37a3.08,3.08,0,1,0,6.15,0v-3.37h3.38a3.08,3.08,0,0,0,0-6.15Z"/><path class="cls-67" d="M403.82,91.3h-3.38V87.93a3.08,3.08,0,1,0-6.15,0V91.3h-3.37a3.08,3.08,0,1,0,0,6.15h3.37v3.37a3.08,3.08,0,1,0,6.15,0V97.45h3.38a3.08,3.08,0,0,0,0-6.15Z"/><circle class="cls-68" cx="216.76" cy="84.85" r="3.23"/><circle class="cls-69" cx="534.52" cy="175.91" r="6.42"/></g></g></svg>